<svg xmlns="http://www.w3.org/2000/svg" viewBox="0 0 800 450">
  <defs>
    <style>
      .char-cell { fill: #c8e6c9; stroke: #2e7d32; stroke-width: 2; }
      .null-cell { fill: #ffcdd2; stroke: #c62828; stroke-width: 2.5; }
      .unused-cell { fill: #f5f5f5; stroke: #999; stroke-width: 1.5; }
      .text-title { font-family: 'Segoe UI', Arial, sans-serif; font-size: 16px; fill: #333; font-weight: bold; text-anchor: middle; }
      .text-label { font-family: 'Segoe UI', Arial, sans-serif; font-size: 12px; fill: #555; text-anchor: middle; }
      .text-code { font-family: 'Courier New', monospace; font-size: 12px; fill: #333; }
      .text-comment { font-family: 'Courier New', monospace; font-size: 10px; fill: #666; font-style: italic; }
      .char-value { font-family: 'Courier New', monospace; font-size: 13px; fill: #1b5e20; text-anchor: middle; font-weight: bold; }
      .null-value { font-family: 'Courier New', monospace; font-size: 12px; fill: #b71c1c; text-anchor: middle; font-weight: bold; }
      .char-index { font-family: 'Courier New', monospace; font-size: 10px; fill: #f57f17; text-anchor: middle; }
      .bracket-length { stroke: #2e7d32; stroke-width: 3; fill: none; }
      .bracket-capacity { stroke: #1976d2; stroke-width: 3; fill: none; }
    </style>
  </defs>
  
  <!-- Title -->
  <text x="400" y="25" class="text-title">Largo vs. Capacidad en Cadenas de Caracteres</text>
  
  <!-- Code declaration -->
  <rect x="250" y="50" width="300" height="30" fill="#f5f5f5" stroke="#999" stroke-width="1" rx="4"/>
  <text x="400" y="70" class="text-code" text-anchor="middle">char buffer[20] = "Hola Mundo";</text>
  
  <!-- Memory cells -->
  <!-- H -->
  <rect x="80" y="110" width="50" height="60" class="char-cell" rx="3"/>
  <text x="105" y="128" class="char-index">[0]</text>
  <text x="105" y="152" class="char-value">'H'</text>
  
  <!-- o -->
  <rect x="135" y="110" width="50" height="60" class="char-cell" rx="3"/>
  <text x="160" y="128" class="char-index">[1]</text>
  <text x="160" y="152" class="char-value">'o'</text>
  
  <!-- l -->
  <rect x="190" y="110" width="50" height="60" class="char-cell" rx="3"/>
  <text x="215" y="128" class="char-index">[2]</text>
  <text x="215" y="152" class="char-value">'l'</text>
  
  <!-- a -->
  <rect x="245" y="110" width="50" height="60" class="char-cell" rx="3"/>
  <text x="270" y="128" class="char-index">[3]</text>
  <text x="270" y="152" class="char-value">'a'</text>
  
  <!-- space -->
  <rect x="300" y="110" width="50" height="60" class="char-cell" rx="3"/>
  <text x="325" y="128" class="char-index">[4]</text>
  <text x="325" y="152" class="char-value">' '</text>
  
  <!-- M -->
  <rect x="355" y="110" width="50" height="60" class="char-cell" rx="3"/>
  <text x="380" y="128" class="char-index">[5]</text>
  <text x="380" y="152" class="char-value">'M'</text>
  
  <!-- u -->
  <rect x="410" y="110" width="50" height="60" class="char-cell" rx="3"/>
  <text x="435" y="128" class="char-index">[6]</text>
  <text x="435" y="152" class="char-value">'u'</text>
  
  <!-- n -->
  <rect x="465" y="110" width="50" height="60" class="char-cell" rx="3"/>
  <text x="490" y="128" class="char-index">[7]</text>
  <text x="490" y="152" class="char-value">'n'</text>
  
  <!-- d -->
  <rect x="520" y="110" width="50" height="60" class="char-cell" rx="3"/>
  <text x="545" y="128" class="char-index">[8]</text>
  <text x="545" y="152" class="char-value">'d'</text>
  
  <!-- o -->
  <rect x="575" y="110" width="50" height="60" class="char-cell" rx="3"/>
  <text x="600" y="128" class="char-index">[9]</text>
  <text x="600" y="152" class="char-value">'o'</text>
  
  <!-- \0 -->
  <rect x="630" y="110" width="50" height="60" class="null-cell" rx="3"/>
  <text x="655" y="128" class="char-index">[10]</text>
  <text x="655" y="152" class="null-value">'\0'</text>
  
  <!-- Unused cells -->
  <rect x="685" y="110" width="25" height="60" class="unused-cell" rx="3"/>
  <text x="697" y="128" class="char-index" font-size="8px">[11]</text>
  
  <rect x="710" y="110" width="10" height="60" class="unused-cell" rx="2"/>
  <text x="715" y="145" class="text-label" font-size="16px">...</text>
  
  <rect x="720" y="110" width="25" height="60" class="unused-cell" rx="3"/>
  <text x="732" y="128" class="char-index" font-size="8px">[19]</text>
  
  <!-- Length bracket -->
  <path d="M 75 185 L 75 200 L 635 200 L 635 185" class="bracket-length"/>
  <text x="355" y="220" class="text-label" fill="#2e7d32" font-weight="bold">LARGO (strlen)</text>
  <text x="355" y="238" class="text-code" fill="#2e7d32">strlen(buffer) = 10</text>
  <text x="355" y="253" class="text-comment">Caracteres hasta '\0' (sin incluirlo)</text>
  
  <!-- Capacity bracket -->
  <path d="M 75 270 L 75 285 L 750 285 L 750 270" class="bracket-capacity"/>
  <text x="412" y="305" class="text-label" fill="#1976d2" font-weight="bold">CAPACIDAD (sizeof)</text>
  <text x="412" y="323" class="text-code" fill="#1976d2">sizeof(buffer) = 20 bytes</text>
  <text x="412" y="338" class="text-comment">Tamaño total del arreglo (fijo, en tiempo de compilación)</text>
  
  <!-- Use case boxes -->
  <rect x="50" y="360" width="340" height="80" fill="#e8f5e9" stroke="#4caf50" stroke-width="2" rx="6"/>
  <text x="220" y="382" class="text-label" font-weight="bold" fill="#2e7d32">Uso del LARGO</text>
  <text x="70" y="402" class="text-comment" text-anchor="start">• Recorrer caracteres válidos</text>
  <text x="70" y="417" class="text-comment" text-anchor="start">• Comparar cadenas</text>
  <text x="70" y="432" class="text-comment" text-anchor="start">• Procesamiento de texto</text>
  
  <rect x="410" y="360" width="340" height="80" fill="#e3f2fd" stroke="#2196f3" stroke-width="2" rx="6"/>
  <text x="580" y="382" class="text-label" font-weight="bold" fill="#1976d2">Uso de la CAPACIDAD</text>
  <text x="430" y="402" class="text-comment" text-anchor="start">• Verificar espacio disponible</text>
  <text x="430" y="417" class="text-comment" text-anchor="start">• Prevenir desbordamiento (buffer overflow)</text>
  <text x="430" y="432" class="text-comment" text-anchor="start">• Concatenar/agregar caracteres con seguridad</text>
</svg>
